<svg width="165" height="165" viewBox="0 0 165 165" fill="none" xmlns="http://www.w3.org/2000/svg">
<path d="M160.053 82.5013C160.053 39.6694 125.331 4.94727 82.4988 4.94727C39.6669 4.94727 4.9447 39.6694 4.9447 82.5013C4.9447 125.333 39.6669 160.055 82.4988 160.055C125.331 160.055 160.053 125.333 160.053 82.5013Z" fill="white"/>
<path d="M82.5 165C37.0084 165 0 127.992 0 82.5C0 37.0084 37.0084 0 82.5 0C127.992 0 165 37.0084 165 82.5C165 127.992 127.992 165 82.5 165ZM82.5 9.89202C42.4633 9.89202 9.88922 42.4633 9.88922 82.5028C9.88922 122.542 42.4605 155.114 82.5 155.114C122.537 155.114 155.111 122.542 155.111 82.5028C155.111 42.4633 122.537 9.89202 82.5 9.89202Z" fill="#3f90e8"/>
<path d="M46.132 85.459H54.1327L64.1994 102.797L63.9109 99.5524V85.459H71.8341V115.518H63.7029L53.847 98.4487L54.055 102.187V115.518H46.132V85.459Z" fill="#3f90e8"/>
<path d="M79.3356 85.459H95.3619V91.8984H87.2559V97.3921H94.3942V103.629H87.2559V115.518H79.3329V85.459H79.3356Z" fill="#3f90e8"/>
<path d="M118.868 108.424V115.565C117.195 116.028 115.695 116.261 114.369 116.261C109.785 116.261 106.069 114.78 103.218 111.815C100.368 108.851 98.9448 104.949 98.9448 100.118C98.9448 95.6309 100.384 91.9259 103.26 89.0029C106.136 86.0827 109.769 84.624 114.161 84.624C115.87 84.624 117.439 84.8209 118.868 85.2092V92.3696C117.351 91.9342 115.922 91.7151 114.58 91.7151C112.522 91.7151 110.814 92.5249 109.455 94.1472C108.096 95.7695 107.417 97.8328 107.417 100.34C107.417 103.041 108.102 105.179 109.469 106.749C110.836 108.318 112.664 109.1 114.946 109.1C116.061 109.1 117.37 108.873 118.868 108.424Z" fill="#3f90e8"/>
<path d="M82.5 46.551C92.7878 46.551 102.663 50.3218 110.306 57.0328C111.497 58.0783 113.308 58.0896 114.429 56.9692C115.544 55.8537 115.552 54.0385 114.375 52.988C105.654 45.204 94.3193 40.8271 82.5027 40.8271C70.6861 40.8271 59.3488 45.204 50.6299 52.9879C49.4531 54.0385 49.4612 55.8535 50.5767 56.969C51.6972 58.0896 53.509 58.0782 54.6998 57.0326C62.3422 50.3217 72.2153 46.551 82.5055 46.551H82.5Z" fill="#3f90e8"/>
<path d="M82.5608 52.1446C73.71 51.9498 65.1155 54.9806 58.2929 60.5489C57.0457 61.5668 57.0304 63.4284 58.1688 64.5668C59.2673 65.6653 61.0332 65.6776 62.25 64.7118C67.9701 60.1716 75.1013 57.7107 82.4444 57.8657C89.7003 58.0146 96.6017 60.674 102.002 65.2913C103.215 66.3288 105.042 66.3556 106.171 65.2268C107.276 64.1221 107.295 62.3252 106.123 61.2927C99.6671 55.6074 91.3342 52.3221 82.5637 52.1446H82.5608Z" fill="#3f90e8"/>
<path d="M82.5001 62.8877C76.5444 62.8877 70.8252 65.0224 66.3419 68.829C65.1671 69.8265 65.2025 71.6 66.2923 72.6898C67.4348 73.8323 69.2877 73.7777 70.5543 72.7746C73.9292 70.1016 78.1323 68.6116 82.5028 68.6116C86.8733 68.6116 91.0764 70.1016 94.4514 72.7746C95.7179 73.7777 97.5709 73.8323 98.7133 72.6898C99.8031 71.6 99.8386 69.8265 98.6638 68.829C94.1805 65.0224 88.4613 62.8877 82.5056 62.8877H82.5001Z" fill="#3f90e8"/>
</svg>
