<svg width="48" height="48" viewBox="0 0 48 48" fill="none" xmlns="http://www.w3.org/2000/svg">
<g clip-path="url(#clip0_1815_133634)">
<rect width="48" height="48" rx="24" fill="#28C76F" fill-opacity="0.12"/>
<path fill-rule="evenodd" clip-rule="evenodd" d="M19 19C19 16.2 21.2 14 24 14C26.8 14 29 16.2 29 19C29 21.8 26.8 24 24 24C21.2 24 19 21.8 19 19ZM33 31V33C33 33.6 32.6 34 32 34C31.4 34 31 33.6 31 33V31C31 29.3 29.7 28 28 28H20C18.3 28 17 29.3 17 31V33C17 33.6 16.6 34 16 34C15.4 34 15 33.6 15 33V31C15 28.2 17.2 26 20 26H28C30.8 26 33 28.2 33 31ZM24 22C22.3 22 21 20.7 21 19C21 17.3 22.3 16 24 16C25.7 16 27 17.3 27 19C27 20.7 25.7 22 24 22Z" fill="black"/>
<mask id="mask0_1815_133634" style="mask-type:luminance" maskUnits="userSpaceOnUse" x="15" y="14" width="18" height="20">
<path fill-rule="evenodd" clip-rule="evenodd" d="M19 19C19 16.2 21.2 14 24 14C26.8 14 29 16.2 29 19C29 21.8 26.8 24 24 24C21.2 24 19 21.8 19 19ZM33 31V33C33 33.6 32.6 34 32 34C31.4 34 31 33.6 31 33V31C31 29.3 29.7 28 28 28H20C18.3 28 17 29.3 17 31V33C17 33.6 16.6 34 16 34C15.4 34 15 33.6 15 33V31C15 28.2 17.2 26 20 26H28C30.8 26 33 28.2 33 31ZM24 22C22.3 22 21 20.7 21 19C21 17.3 22.3 16 24 16C25.7 16 27 17.3 27 19C27 20.7 25.7 22 24 22Z" fill="white"/>
</mask>
<g mask="url(#mask0_1815_133634)">
<rect x="12" y="12" width="24" height="24" fill="#28C76F"/>
</g>
</g>
<defs>
<clipPath id="clip0_1815_133634">
<rect width="48" height="48" fill="white"/>
</clipPath>
</defs>
</svg>
