<svg width="49" height="48" viewBox="0 0 49 48" fill="none" xmlns="http://www.w3.org/2000/svg">
<g clip-path="url(#clip0_1121_122974)">
<rect x="0.0546875" width="48" height="48" rx="24" fill="#FF377F" fill-opacity="0.12"/>
<path fill-rule="evenodd" clip-rule="evenodd" d="M19.0547 19C19.0547 16.2 21.2547 14 24.0547 14C26.8547 14 29.0547 16.2 29.0547 19C29.0547 21.8 26.8547 24 24.0547 24C21.2547 24 19.0547 21.8 19.0547 19ZM33.0547 31V33C33.0547 33.6 32.6547 34 32.0547 34C31.4547 34 31.0547 33.6 31.0547 33V31C31.0547 29.3 29.7547 28 28.0547 28H20.0547C18.3547 28 17.0547 29.3 17.0547 31V33C17.0547 33.6 16.6547 34 16.0547 34C15.4547 34 15.0547 33.6 15.0547 33V31C15.0547 28.2 17.2547 26 20.0547 26H28.0547C30.8547 26 33.0547 28.2 33.0547 31ZM24.0547 22C22.3547 22 21.0547 20.7 21.0547 19C21.0547 17.3 22.3547 16 24.0547 16C25.7547 16 27.0547 17.3 27.0547 19C27.0547 20.7 25.7547 22 24.0547 22Z" fill="black"/>
<mask id="mask0_1121_122974" style="mask-type:luminance" maskUnits="userSpaceOnUse" x="15" y="14" width="19" height="20">
<path fill-rule="evenodd" clip-rule="evenodd" d="M19.0547 19C19.0547 16.2 21.2547 14 24.0547 14C26.8547 14 29.0547 16.2 29.0547 19C29.0547 21.8 26.8547 24 24.0547 24C21.2547 24 19.0547 21.8 19.0547 19ZM33.0547 31V33C33.0547 33.6 32.6547 34 32.0547 34C31.4547 34 31.0547 33.6 31.0547 33V31C31.0547 29.3 29.7547 28 28.0547 28H20.0547C18.3547 28 17.0547 29.3 17.0547 31V33C17.0547 33.6 16.6547 34 16.0547 34C15.4547 34 15.0547 33.6 15.0547 33V31C15.0547 28.2 17.2547 26 20.0547 26H28.0547C30.8547 26 33.0547 28.2 33.0547 31ZM24.0547 22C22.3547 22 21.0547 20.7 21.0547 19C21.0547 17.3 22.3547 16 24.0547 16C25.7547 16 27.0547 17.3 27.0547 19C27.0547 20.7 25.7547 22 24.0547 22Z" fill="white"/>
</mask>
<g mask="url(#mask0_1121_122974)">
<rect x="12.0547" y="12" width="24" height="24" fill="#FF377F"/>
</g>
</g>
<defs>
<clipPath id="clip0_1121_122974">
<rect width="48" height="48" fill="white" transform="translate(0.0410156)"/>
</clipPath>
</defs>
</svg>
