<svg width="28" height="48" viewBox="0 0 28 48" fill="none" xmlns="http://www.w3.org/2000/svg">
<path d="M24.0777 33.4529V5.19912C24.0777 2.33274 21.775 0 18.9452 0C16.1154 0 13.8126 2.33274 13.8126 5.19912V33.4527C12.0025 34.9585 10.8455 37.2425 10.8455 39.7952C10.8455 44.3189 14.4795 48 18.9452 48C23.4109 48 27.0449 44.3189 27.0449 39.7952C27.0449 37.2425 25.8879 34.9587 24.0777 33.4527V33.4529ZM18.9452 46.2612C15.4254 46.2612 12.562 43.3599 12.562 39.7952C12.562 38.359 13.0272 37.0305 13.8126 35.9558C14.2804 35.3141 14.8632 34.7638 15.5292 34.3352V5.19912C15.5292 3.29165 17.0621 1.73882 18.9452 1.73882C20.8282 1.73882 22.3612 3.29165 22.3612 5.19912V34.3352C23.0273 34.7638 23.61 35.3142 24.0777 35.9558C24.8632 37.0304 25.3284 38.3588 25.3284 39.7952C25.3284 43.3599 22.4652 46.2612 18.9452 46.2612Z" fill="#FF0000"/>
<path d="M21.1295 35.5737C20.8398 35.4211 20.6604 35.1156 20.6604 34.7848V14.1852C20.6604 13.2432 19.9372 12.4409 19.0079 12.4074C18.0321 12.3722 17.2303 13.1631 17.2303 14.1436V34.7848C17.2303 35.1157 17.0506 35.4211 16.7609 35.5739C15.1561 36.4203 14.0896 38.169 14.2191 40.1569C14.3767 42.5745 16.3315 44.5125 18.721 44.6242C21.4392 44.7513 23.6823 42.5566 23.6823 39.8311C23.6823 37.9794 22.6463 36.3736 21.1297 35.5739L21.1295 35.5737Z" fill="#FF0000"/>
<path d="M11.3867 25.4537H9.07372L9.06005 25.5677C9.0016 26.0525 8.81708 26.4135 8.49628 26.6709C8.13716 26.958 7.64355 27.1035 7.02944 27.1035C6.23577 27.1035 5.62948 26.8379 5.17629 26.2918C4.70839 25.7263 4.47128 24.8858 4.47128 23.7936C4.47128 22.7013 4.70989 21.8576 5.18065 21.296C5.63804 20.75 6.2511 20.4846 7.05454 20.4846C7.64431 20.4846 8.13115 20.6283 8.50169 20.912C8.84307 21.1718 9.02835 21.5138 9.06846 21.9576L9.07913 22.0755H11.3964L11.3749 21.8674C11.2711 20.8089 10.7958 19.9439 9.96236 19.2961C9.15516 18.6707 8.17262 18.3535 7.04207 18.3535C5.56892 18.3535 4.37075 18.8566 3.48077 19.8488C2.601 20.8292 2.15503 22.1563 2.15503 23.7933C2.15503 25.4303 2.60115 26.7584 3.48077 27.7388C4.37075 28.7311 5.56892 29.2341 7.04207 29.2341C8.21935 29.2341 9.21392 28.918 9.99827 28.2947C10.8065 27.6536 11.2693 26.7454 11.374 25.5953L11.387 25.4537H11.3867Z" fill="#FF0000"/>
<path d="M3.40262 17.0179C3.40262 15.1063 2.47657 14.7051 1.69973 14.7051C0.922893 14.7051 0 15.1065 0 17.0179C0 18.9293 0.924396 19.3196 1.69988 19.3196C2.47537 19.3196 3.40277 18.9202 3.40277 17.0179H3.40262ZM2.19769 18.2319C2.08214 18.4217 1.92392 18.5101 1.69973 18.5101C1.47555 18.5101 1.32048 18.4217 1.20493 18.2319C1.11477 18.0838 1.00719 17.7529 1.00719 17.0179C1.00719 16.2829 1.11492 15.9462 1.20538 15.7961C1.32108 15.604 1.47825 15.5145 1.69973 15.5145C1.92122 15.5145 2.08139 15.604 2.19709 15.7961C2.28755 15.9463 2.39528 16.2803 2.39528 17.018C2.39528 17.7558 2.28785 18.0839 2.19754 18.232L2.19769 18.2319Z" fill="#FF0000"/>
</svg>
