<svg width="26" height="48" viewBox="0 0 26 48" fill="none" xmlns="http://www.w3.org/2000/svg">
<path fill-rule="evenodd" clip-rule="evenodd" d="M25.7033 41.002C25.5555 44.8405 22.3658 47.9352 18.4872 47.9352H7.22199C3.34335 47.9352 0.153662 44.8405 0.00585938 41.002H25.7033Z" fill="#FF0000"/>
<path fill-rule="evenodd" clip-rule="evenodd" d="M25.7094 20.9551V36.2641H0V20.9551H25.7094ZM11.382 34.199C7.39731 31.415 10.9386 25.7565 12.8553 22.8428C14.7708 25.7565 18.3133 31.4162 14.3286 34.199C14.2594 34.2692 14.1498 34.3275 14.0139 34.3751C15.5312 32.6148 13.8136 29.5427 12.8553 27.9085C11.897 29.5427 10.1805 32.616 11.6967 34.3751C11.5608 34.3275 11.4512 34.268 11.382 34.199Z" fill="#FF0000"/>
<path d="M18.0129 9.30629C18.0129 9.94665 18.5326 10.4656 19.1739 10.4656C19.8151 10.4656 20.3348 9.94665 20.3348 9.30629V3.28125H18.0141V9.30748L18.0129 9.30629ZM5.37573 3.28125V9.30748C5.37573 9.94784 5.89543 10.4668 6.5367 10.4668C7.17798 10.4668 7.69767 9.94784 7.69767 9.30748V3.28125H5.37692H5.37573Z" fill="#FF0000"/>
<path d="M20.5232 0H5.18622C4.27908 0 3.5437 0.734326 3.5437 1.64016V1.64135C3.5437 2.54719 4.27908 3.28152 5.18622 3.28152H20.5232C21.4303 3.28152 22.1657 2.54719 22.1657 1.64135V1.64016C22.1657 0.734326 21.4303 0 20.5232 0Z" fill="#FF0000"/>
<path fill-rule="evenodd" clip-rule="evenodd" d="M25.7094 37.1914H0V40.0766H25.7094V37.1914Z" fill="#FF0000"/>
<path fill-rule="evenodd" clip-rule="evenodd" d="M0 17.1445V20.0285H25.7094V17.1445H0Z" fill="#FF0000"/>
<path fill-rule="evenodd" clip-rule="evenodd" d="M7.22199 9.2832H18.4872C22.3658 9.2832 25.5555 12.3779 25.7033 16.2164H0.00585938C0.153662 12.3779 3.34335 9.2832 7.22199 9.2832Z" fill="#FF0000"/>
</svg>
