<svg width="28" height="48" viewBox="0 0 28 48" fill="none" xmlns="http://www.w3.org/2000/svg">
<path d="M27.9497 30.5232C27.2286 20.6901 16.8903 7.95686 14 0C11.1095 7.95686 0.77116 20.6901 0.0503308 30.5232C-0.661993 40.2369 6.29584 48 14 48C21.7042 48 28.6617 40.2373 27.9497 30.5232ZM12.0537 42.9794C11.9856 42.9841 11.9021 42.9906 11.8038 42.9933C11.7049 42.9933 11.5905 42.991 11.4614 42.9864C11.204 42.9748 10.8943 42.9421 10.5383 42.8735C10.4482 42.8604 10.3587 42.8342 10.2648 42.8119C10.1712 42.7876 10.0736 42.7668 9.97528 42.7375C9.77869 42.6786 9.57171 42.6124 9.35905 42.5292C9.14356 42.4525 8.92838 42.3454 8.7006 42.2418C8.47692 42.1286 8.24788 42.0018 8.01695 41.8593C7.55603 41.5716 7.08441 41.2222 6.62885 40.8C6.517 40.6914 6.40044 40.587 6.28985 40.4711C6.18022 40.354 6.06806 40.2384 5.95842 40.1167C5.90518 40.0539 5.85162 39.9911 5.79806 39.928L5.71773 39.8328L5.6774 39.7851L5.65724 39.7612L5.64716 39.7492C5.6585 39.765 5.62605 39.7207 5.62794 39.7234L5.62353 39.7177C5.52964 39.5952 5.43544 39.4719 5.34062 39.3483C4.92192 38.7693 4.56371 38.1596 4.2559 37.4963C3.94999 36.8337 3.70268 36.1285 3.52625 35.4093C3.34857 34.6905 3.24397 33.9587 3.20491 33.2492C3.16773 32.5389 3.2027 31.8517 3.28052 31.2158C3.29123 31.1364 3.30163 31.0578 3.31234 30.9792L3.33092 30.8398L3.35109 30.7339C3.37881 30.5925 3.4015 30.4569 3.43268 30.3163C3.50546 30.0155 3.57036 29.7228 3.65322 29.4724C3.80791 28.9566 3.98717 28.5117 4.15351 28.1261C4.32553 27.7437 4.48526 27.4209 4.62924 27.1636C4.76754 26.9032 4.89104 26.7098 4.97358 26.5773C5.05833 26.4463 5.10338 26.3766 5.10338 26.3766C5.10338 26.3766 5.0933 26.4648 5.07408 26.6305C5.05266 26.793 5.02084 27.0311 4.98052 27.3346C4.93893 27.635 4.89262 27.9983 4.84252 28.4085C4.79779 28.8199 4.74328 29.2783 4.71556 29.7701C4.69477 30.0201 4.6913 30.2586 4.68311 30.5051C4.68216 30.6441 4.6809 30.7855 4.67996 30.9292L4.67901 31.0378V31.0513C4.67712 31.0755 4.68153 31.0259 4.68122 31.0332V31.0393L4.6828 31.0644L4.685 31.1148C4.68815 31.1819 4.69099 31.2496 4.69414 31.3178C4.71524 31.8613 4.77132 32.4256 4.86269 32.9957C5.0514 34.1351 5.39606 35.2949 5.89321 36.3646C6.13832 36.8988 6.4269 37.4212 6.71737 37.8822C6.80464 38.014 6.89128 38.1449 6.97792 38.2755C7.05479 38.3845 7.13166 38.4931 7.2079 38.6014C7.29202 38.7131 7.37551 38.824 7.45837 38.9342C7.54249 39.0436 7.63007 39.1476 7.71482 39.2543C8.05979 39.6718 8.41548 40.0566 8.77117 40.4014C9.12497 40.7496 9.47971 41.0566 9.81839 41.327C10.1552 41.6032 10.48 41.8331 10.773 42.0369C11.0666 42.2372 11.3322 42.4044 11.5521 42.5399C11.6624 42.6054 11.7616 42.6651 11.8486 42.7198C11.9377 42.7707 12.0136 42.8138 12.0751 42.8489C12.1976 42.9224 12.2632 42.9613 12.2632 42.9613C12.2632 42.9613 12.1898 42.9679 12.0537 42.9794Z" fill="#FF0000"/>
</svg>
