<svg width="22" height="48" viewBox="0 0 22 48" fill="none" xmlns="http://www.w3.org/2000/svg">
<path fill-rule="evenodd" clip-rule="evenodd" d="M14.5608 17.3475L20.6753 17.4466H20.7321L20.8524 17.4534C21.1466 17.4705 21.4208 17.6311 21.5946 17.8805C21.7985 18.1641 21.8386 18.5297 21.7116 18.8577L0.616922 47.8465L0.586834 47.8807C0.489886 48.0003 0.31939 48.0345 0.182325 47.9627C0.0419163 47.891 -0.0249448 47.7338 0.00848578 47.58L7.18268 23.9626L1.69673 23.8635H1.67333C1.16853 23.8532 0.700498 23.597 0.416339 23.1733C0.178982 22.8111 0.0920622 22.3737 0.178982 21.9569L5.97584 1.57176C6.27003 0.447611 7.22614 0 8.00173 0L20.9594 0.0649207C21.9155 0.170844 22.203 0.994311 21.862 1.78703L14.5608 17.3509V17.3475Z" fill="#FF0000"/>
</svg>
